<svg width="447" height="438" viewBox="0 0 447 438" fill="none" xmlns="http://www.w3.org/2000/svg">
<g clip-path="url(#clip0_27_1025)">
<path d="M46.8204 382.044C44.6945 385.114 43.0622 388.454 41.9753 391.96C41.056 395.094 40.6469 398.338 40.7615 401.584C41.058 408.264 43.0789 414.78 46.6542 420.584C49.3474 424.987 52.6296 429.057 56.4227 432.696C58.2801 433.864 60.1382 435.005 61.9968 436.118C62.0094 436.124 62.0224 436.135 62.0351 436.14C62.1245 436.193 62.2141 436.246 62.2974 436.3C62.681 436.53 63.0648 436.759 63.4452 436.986C63.4452 436.986 63.0311 437.174 63.2555 437.089C63.3224 437.063 63.3924 437.04 63.459 437.014C62.7664 431.745 63.4449 426.398 65.4378 421.422C67.4307 416.446 70.6799 411.986 74.913 408.415C79.1564 404.899 84.2353 402.363 89.7357 401.014C89.4658 400.655 89.1752 400.312 88.8726 399.976C86.7483 400.528 84.6807 401.255 82.6942 402.145C75.593 405.309 69.7784 410.511 66.1112 416.981C62.8204 422.855 61.404 429.479 62.0285 436.074C61.711 435.807 61.3931 435.534 61.0847 435.264C55.2122 430.184 49.9961 424.352 46.4661 417.622C43.4036 411.923 41.8984 405.612 42.0831 399.246C42.3712 392.304 45.3519 385.874 49.6675 380.277C54.3974 374.305 59.9851 368.962 66.2753 364.395C72.6145 359.683 79.5511 355.71 86.9305 352.562C87.097 352.49 87.2272 352.361 87.2942 352.202C87.3613 352.044 87.36 351.867 87.2908 351.709C87.2416 351.568 87.1341 351.45 86.9917 351.381C86.9185 351.352 86.839 351.338 86.7593 351.342C86.6796 351.345 86.6017 351.364 86.5314 351.399C85.6203 351.789 84.7155 352.183 83.818 352.595C76.3424 356.023 69.3547 360.3 63.0156 365.328C56.8924 370.172 51.1277 375.706 46.8204 382.044Z" fill="white"/>
<path d="M175.174 186.108C187.662 179.774 192.072 164.94 185.024 152.977C177.976 141.013 162.139 136.449 149.651 142.784C137.163 149.118 132.754 163.952 139.802 175.915C146.85 187.879 162.687 192.443 175.174 186.108Z" fill="#2F2E41"/>
<path d="M162.413 190.492C174.14 190.492 183.646 181.67 183.646 170.789C183.646 159.907 174.14 151.086 162.413 151.086C150.686 151.086 141.179 159.907 141.179 170.789C141.179 181.67 150.686 190.492 162.413 190.492Z" fill="#FFB8B8"/>
<path d="M151.027 200.926L148.297 208.093L152.313 229.664L168.865 242.425L182.01 223.565L175.681 205.722L170.934 200.753C170.981 200.306 170.928 199.855 170.778 199.429C170.628 199.002 170.384 198.609 170.062 198.274C169.741 197.938 169.348 197.669 168.909 197.481C168.47 197.293 167.993 197.192 167.51 197.183L157.144 196.996C155.808 196.972 154.499 197.338 153.401 198.044C152.303 198.75 151.473 199.758 151.027 200.926Z" fill="#CCCCCC"/>
<path d="M195.015 428.131L205.614 428.129L207.077 390.195L195.011 390.196L195.015 428.131Z" fill="#FFB8B8"/>
<path d="M226.055 437.26L192.744 437.263L192.743 425.321L213.184 425.319C216.597 425.319 219.871 426.576 222.284 428.816C224.698 431.055 226.054 434.093 226.055 437.26L226.055 437.26Z" fill="#2F2E41"/>
<path d="M120.767 428.131L131.366 428.129L136.406 390.195L120.764 390.196L120.767 428.131Z" fill="#FFB8B8"/>
<path d="M151.808 437.26L118.497 437.263L118.496 425.321L138.936 425.319C142.35 425.319 145.623 426.576 148.037 428.816C150.451 431.055 151.807 434.093 151.808 437.26L151.808 437.26Z" fill="#2F2E41"/>
<path d="M213.958 161.729C215.046 162.339 215.976 163.163 216.683 164.143C217.39 165.123 217.857 166.235 218.051 167.4C218.245 168.566 218.161 169.757 217.805 170.889C217.449 172.021 216.83 173.067 215.992 173.953L224.758 190.495L215.224 197.89L203.198 174.368C201.687 172.962 200.784 171.091 200.661 169.109C200.537 167.127 201.201 165.171 202.528 163.613C203.854 162.055 205.75 161.003 207.857 160.656C209.964 160.308 212.135 160.69 213.958 161.729H213.958Z" fill="#FFB8B8"/>
<path d="M150.766 291.262C145.599 291.199 140.441 290.846 135.32 290.204C134.443 290.102 133.601 289.826 132.849 289.396C132.098 288.966 131.454 288.391 130.962 287.71C130.471 287.03 130.142 286.259 129.998 285.451C129.855 284.642 129.9 283.814 130.13 283.023L141.604 243.603L132.364 219.549C131.368 216.952 131.48 214.099 132.676 211.575C133.871 209.051 136.061 207.047 138.797 205.971L151.489 200.992L155.303 222.903L164.391 233.536C164.693 233.889 165.084 234.167 165.529 234.347C165.974 234.526 166.461 234.601 166.945 234.565C167.429 234.528 167.896 234.382 168.304 234.138C168.713 233.894 169.05 233.561 169.287 233.167L176.188 221.689L170.551 200.598L178.955 201.52C181.668 201.826 184.234 202.833 186.361 204.427C188.487 206.02 190.088 208.136 190.982 210.533C193.565 217.502 193.79 225.038 191.628 232.13L188.145 243.611L194.26 280.289C194.428 281.288 194.375 282.309 194.104 283.289C193.834 284.269 193.352 285.187 192.688 285.989C192.023 286.791 191.191 287.459 190.24 287.954C189.289 288.448 188.24 288.758 187.156 288.865C183.248 289.283 179.313 289.436 175.382 289.322C171.814 289.181 169.308 287.163 168.135 283.485C168.072 283.269 167.934 283.079 167.743 282.943C167.552 282.808 167.318 282.733 167.078 282.732C166.837 282.731 166.603 282.803 166.41 282.937C166.218 283.071 166.078 283.26 166.011 283.474C165.687 284.542 165.33 285.732 164.94 287.043C163.995 290.224 158.078 291.262 150.766 291.262Z" fill="#2F2E41"/>
<path d="M187.643 220.107C186.589 220.109 185.545 219.918 184.572 219.544C183.428 219.104 182.419 218.411 181.632 217.524C180.846 216.637 180.306 215.585 180.06 214.459C179.69 212.674 179.948 210.826 180.796 209.187C181.644 207.548 183.037 206.205 184.77 205.357L209.536 192.88L208.181 187.91C207.994 187.148 208.052 186.351 208.347 185.619C208.643 184.887 209.164 184.252 209.845 183.792L216.231 179.39C216.717 179.045 217.279 178.805 217.877 178.687C218.476 178.57 219.095 178.579 219.689 178.712C220.213 178.834 220.701 179.064 221.116 179.384C221.532 179.704 221.866 180.106 222.092 180.561L225.41 187.208C228.035 192.466 225.791 198.943 220.189 202.272L192.413 218.783C190.991 219.638 189.336 220.097 187.643 220.107Z" fill="#2F2E41"/>
<path d="M135.466 410.496C135.38 410.496 135.293 410.493 135.206 410.488L121.712 409.985C121.189 409.955 120.677 409.827 120.209 409.608C119.74 409.39 119.324 409.086 118.985 408.715C118.646 408.343 118.392 407.912 118.237 407.447C118.082 406.982 118.031 406.493 118.085 406.009L131.781 283.745L167.724 271.617L188.89 282.732L212.047 401.2C212.229 402.107 212.03 403.043 211.491 403.818C210.952 404.593 210.114 405.147 209.149 405.367L209.093 405.38L195.279 405.065C194.327 405.265 193.329 405.126 192.482 404.677C191.634 404.227 190.999 403.499 190.702 402.637L161.283 306.843C161.195 306.593 161.021 306.377 160.787 306.228C160.554 306.078 160.274 306.004 159.991 306.016C159.707 306.028 159.436 306.126 159.219 306.295C159.001 306.464 158.849 306.694 158.786 306.951L139.257 407.669C139.067 408.471 138.588 409.188 137.898 409.702C137.209 410.217 136.351 410.497 135.466 410.496Z" fill="#2F2E41"/>
<path d="M143.867 158.35C140.489 162.454 143.06 169.438 148.437 170.767C153.814 172.096 159.788 167.223 159.058 162.105C157.897 167.475 162.851 173.095 168.731 173.573C174.612 174.05 180.329 169.775 181.616 164.429C182.902 159.084 180.031 153.243 175.143 150.172C170.255 147.101 163.71 146.702 158.179 148.617C152.533 150.576 147.581 153.945 143.867 158.35Z" fill="#2F2E41"/>
<path d="M169.464 140.835C166.319 134.711 163.087 128.469 158.004 123.592C152.92 118.716 145.566 115.357 138.36 116.507C131.154 117.657 124.949 124.405 126.545 131.026C127.356 134.389 124.252 137.722 120.675 138.648C117.098 139.574 113.285 138.708 109.749 137.655C106.213 136.603 102.63 135.345 98.9195 135.494C91.4793 135.791 85.2588 142.326 84.9975 149.232C84.7361 156.138 89.7988 162.711 96.5912 165.544C103.384 168.377 111.509 167.743 118.208 164.726C124.908 161.709 130.265 156.507 134.183 150.63C139.971 141.946 154.517 139.804 162.918 146.399C163.818 147.054 164.951 147.371 166.091 147.286C167.231 147.201 168.295 146.721 169.071 145.941C170.557 144.332 170.341 141.618 169.464 140.835Z" fill="#2F2E41"/>
<path d="M328.129 106.415L321.045 100.485C295.891 79.055 279.284 65.1457 279.284 47.819C279.284 33.6826 291.006 22.7393 306.149 22.7393C310.342 22.76 314.48 23.6273 318.275 25.281C322.071 26.9346 325.433 29.335 328.129 32.3155C330.824 29.335 334.187 26.9345 337.982 25.2809C341.778 23.6272 345.916 22.7599 350.109 22.7393C365.252 22.7393 376.974 33.6827 376.974 47.819C376.974 65.1459 360.367 79.0552 335.212 100.485L328.129 106.415Z" fill="#FF4343"/>
<path d="M211.515 147.192C210.851 146.977 210.277 146.575 209.872 146.042C209.467 145.509 209.252 144.871 209.257 144.219V7.21978C209.26 5.30565 210.08 3.47054 211.539 2.11704C212.998 0.763546 214.975 0.00218899 217.038 0H439.219C441.282 0.00218899 443.26 0.763546 444.718 2.11704C446.177 3.47054 446.998 5.30565 447 7.21978V122.736C446.998 124.65 446.177 126.486 444.718 127.839C443.26 129.193 441.282 129.954 439.219 129.956H229.63L215.291 146.218C214.976 146.58 214.578 146.873 214.126 147.074C213.674 147.275 213.179 147.38 212.677 147.38C212.281 147.38 211.888 147.316 211.515 147.192ZM217.038 1.6044C215.434 1.60607 213.895 2.19822 212.761 3.25095C211.626 4.30367 210.988 5.731 210.986 7.21978V144.219C210.986 144.539 211.093 144.852 211.292 145.113C211.491 145.375 211.772 145.573 212.096 145.681C212.421 145.788 212.774 145.8 213.106 145.714C213.439 145.629 213.734 145.45 213.953 145.202L228.81 128.352H439.219C440.824 128.35 442.362 127.758 443.496 126.705C444.631 125.652 445.269 124.225 445.271 122.736V7.21978C445.269 5.731 444.631 4.30367 443.496 3.25095C442.362 2.19822 440.824 1.60607 439.219 1.6044H217.038Z" fill="#3F3D56"/>
<path d="M145.998 272.229L144.497 268.99C139.232 257.356 135.714 249.761 138.817 243.49C139.943 241.106 142.044 239.234 144.658 238.287C147.271 237.34 150.183 237.395 152.752 238.44C152.846 238.478 152.939 238.517 153.032 238.558C154.545 239.212 155.888 240.164 156.965 241.348C158.042 242.532 158.829 243.919 159.271 245.413C160.78 244.75 162.427 244.4 164.097 244.387C165.767 244.374 167.419 244.698 168.941 245.338C170.21 245.862 171.355 246.613 172.311 247.549C173.267 248.484 174.015 249.585 174.513 250.788C175.01 251.992 175.248 253.274 175.211 254.563C175.174 255.852 174.864 257.121 174.299 258.298C174.258 258.385 174.215 258.471 174.17 258.557C171.067 264.827 162.565 267.3 149.624 271.175L145.998 272.229Z" fill="#FF4343"/>
<path d="M151.784 256.321C151.38 255.203 150.716 254.181 149.84 253.327C148.964 252.473 147.896 251.807 146.713 251.377C145.53 250.947 144.259 250.763 142.991 250.838C141.722 250.912 140.487 251.244 139.372 251.81L123.833 240.979L120.082 250.887L136.141 263.305C137.289 264.98 139.06 266.206 141.118 266.751C143.175 267.296 145.377 267.121 147.305 266.26C149.233 265.4 150.754 263.912 151.58 262.081C152.405 260.249 152.478 258.2 151.784 256.321H151.784Z" fill="#FFB8B8"/>
<path d="M129.504 259.738C128.819 259.738 128.149 259.557 127.571 259.217L120.898 255.304C115.618 252.208 113.716 245.638 116.475 240.021L130.155 212.167C130.704 211 131.549 209.973 132.618 209.174C133.688 208.376 134.95 207.829 136.296 207.581C137.514 207.375 138.767 207.449 139.947 207.798C141.126 208.146 142.195 208.759 143.059 209.581C144.414 210.894 145.278 212.577 145.524 214.381C145.77 216.184 145.385 218.014 144.425 219.599L130.916 242.547L134.959 246.04C135.563 246.586 135.98 247.284 136.159 248.048C136.339 248.812 136.273 249.608 135.969 250.337L133.179 257.25C132.973 257.784 132.64 258.269 132.206 258.669C131.772 259.068 131.247 259.373 130.67 259.56C130.294 259.678 129.9 259.738 129.504 259.738Z" fill="#2F2E41"/>
<path d="M272.323 438H0.864518C0.635233 438 0.415352 437.915 0.253224 437.765C0.0910954 437.614 0 437.41 0 437.198C0 436.985 0.0910954 436.781 0.253224 436.63C0.415352 436.48 0.635233 436.396 0.864518 436.396H272.323C272.552 436.396 272.772 436.48 272.934 436.63C273.097 436.781 273.188 436.985 273.188 437.198C273.188 437.41 273.097 437.614 272.934 437.765C272.772 437.915 272.552 438 272.323 438Z" fill="#3F3D56"/>
</g>
<defs>
<clipPath id="clip0_27_1025">
<rect width="447" height="438" fill="white"/>
</clipPath>
</defs>
</svg>
