<svg width="631" height="436" viewBox="0 0 631 436" fill="none" xmlns="http://www.w3.org/2000/svg">
<path d="M630.129 436H367.918C367.687 436 367.466 435.911 367.302 435.754C367.139 435.596 367.047 435.383 367.047 435.16C367.047 434.937 367.139 434.723 367.302 434.566C367.466 434.408 367.687 434.32 367.918 434.32H630.129C630.36 434.32 630.581 434.408 630.745 434.566C630.908 434.723 631 434.937 631 435.16C631 435.383 630.908 435.596 630.745 435.754C630.581 435.911 630.36 436 630.129 436Z" fill="#3F3D56"/>
<path d="M466.419 426.379H455.74L450.658 386.654L466.421 386.655L466.419 426.379Z" fill="#FFB8B8"/>
<path d="M448.111 423.437H468.708V435.943H435.143C435.143 434.3 435.478 432.674 436.13 431.157C436.781 429.639 437.737 428.261 438.941 427.099C440.145 425.938 441.575 425.017 443.148 424.389C444.722 423.76 446.408 423.437 448.111 423.437Z" fill="#2F2E41"/>
<path d="M543.911 414.713L534.196 418.992L512.459 384.894L526.796 378.579L543.911 414.713Z" fill="#FFB8B8"/>
<path d="M525.99 419.372L544.725 411.12L550.113 422.495L519.581 435.943C518.874 434.449 518.478 432.836 518.417 431.195C518.356 429.553 518.631 427.916 519.226 426.378C519.822 424.839 520.725 423.428 521.886 422.226C523.046 421.024 524.44 420.054 525.99 419.372Z" fill="#2F2E41"/>
<path d="M512.809 292.435C513.833 291.692 514.675 290.742 515.276 289.652C515.877 288.562 516.224 287.357 516.29 286.124C516.357 284.891 516.142 283.658 515.661 282.514C515.18 281.369 514.445 280.34 513.507 279.499L526.062 252.029L510.113 254.635L500.636 280.322C499.275 281.935 498.575 283.973 498.669 286.05C498.763 288.128 499.643 290.1 501.144 291.593C502.644 293.086 504.66 293.996 506.811 294.152C508.961 294.307 511.095 293.696 512.809 292.435Z" fill="#FFB8B8"/>
<path d="M465.739 415.905H455.536C454.547 415.902 453.595 415.539 452.87 414.889C452.145 414.239 451.701 413.35 451.626 412.399L440.836 269.116C440.794 268.567 440.878 268.016 441.08 267.501C441.283 266.987 441.599 266.521 442.008 266.136C442.417 265.752 442.907 265.458 443.446 265.276C443.984 265.093 444.558 265.026 445.126 265.08L509.359 271.123C510.315 271.213 511.204 271.639 511.856 272.319C512.508 273 512.879 273.887 512.897 274.814L514.134 338.017C514.141 338.36 514.21 338.7 514.338 339.02L538.542 399.55C538.729 400.017 538.818 400.516 538.803 401.017C538.788 401.518 538.67 402.011 538.456 402.468C538.242 402.924 537.936 403.335 537.555 403.677C537.175 404.018 536.728 404.283 536.24 404.456L525.901 408.13C525.003 408.449 524.015 408.44 523.123 408.105C522.232 407.77 521.498 407.133 521.06 406.312L491.326 350.557C491.164 350.254 491.045 349.931 490.974 349.597L485.894 325.996C485.747 325.312 485.352 324.7 484.779 324.272C484.207 323.843 483.495 323.625 482.771 323.656C482.047 323.688 481.358 323.967 480.829 324.444C480.299 324.921 479.962 325.564 479.88 326.259L469.633 412.554C469.524 413.477 469.067 414.328 468.348 414.946C467.63 415.564 466.701 415.905 465.739 415.905Z" fill="#2F2E41"/>
<path d="M470.819 157.083C482.635 157.083 492.215 147.846 492.215 136.45C492.215 125.055 482.635 115.817 470.819 115.817C459.002 115.817 449.423 125.055 449.423 136.45C449.423 147.846 459.002 157.083 470.819 157.083Z" fill="#FFB8B8"/>
<path d="M444.907 269.944C447.646 271.766 478.504 291.376 513.676 275.778C513.221 271.991 508.832 233.96 512.665 205.924C514.484 192.622 508.991 180.299 497.596 172.114C491.407 167.69 484.107 164.938 476.448 164.14C468.788 163.342 461.047 164.529 454.022 167.577H454.021C453.444 167.826 452.862 168.086 452.277 168.355L444.907 269.944Z" fill="#54A048"/>
<path d="M514.01 275.466C513.467 275.466 512.93 275.357 512.434 275.146C511.937 274.935 511.491 274.626 511.125 274.24L506.445 269.316C505.99 268.834 505.67 268.248 505.518 267.613C505.366 266.978 505.385 266.316 505.575 265.69L516.294 230.703L499.985 197.674C499.27 196.222 499.094 194.577 499.489 193.015C499.836 191.645 500.607 190.407 501.698 189.467C502.79 188.527 504.151 187.928 505.603 187.749C507.054 187.571 508.528 187.82 509.83 188.466C511.131 189.111 512.199 190.121 512.893 191.364L534.941 225.864C535.799 227.204 536.302 228.727 536.407 230.299C536.511 231.871 536.214 233.443 535.542 234.878L517.588 273.24C517.322 273.811 516.912 274.309 516.397 274.689C515.881 275.069 515.276 275.319 514.635 275.418C514.428 275.45 514.219 275.466 514.01 275.466Z" fill="#54A048"/>
<path opacity="0.2" d="M460.741 270.992H452.193L467.114 203.278L467.975 203.387L464.656 267.401C464.607 268.369 464.172 269.283 463.444 269.951C462.715 270.62 461.747 270.992 460.741 270.992Z" fill="black"/>
<path d="M452.832 287.826C453.673 286.895 454.292 285.797 454.646 284.61C454.999 283.423 455.079 282.176 454.878 280.956C454.678 279.736 454.202 278.574 453.486 277.55C452.769 276.527 451.828 275.667 450.73 275.032L457.096 245.647L442.056 251.39L438.316 278.415C437.332 280.265 437.086 282.399 437.625 284.412C438.164 286.425 439.45 288.178 441.239 289.338C443.028 290.498 445.197 290.985 447.333 290.707C449.47 290.428 451.427 289.403 452.832 287.826Z" fill="#FFB8B8"/>
<path d="M451.97 271.076C451.822 271.076 451.674 271.068 451.528 271.052L442.412 270.075C441.426 269.967 440.52 269.503 439.874 268.778C439.228 268.052 438.89 267.118 438.928 266.162L442.7 178.137C442.818 175.376 443.975 172.751 445.955 170.754C447.935 168.756 450.602 167.523 453.457 167.285C456.312 167.046 459.159 167.819 461.465 169.458C463.772 171.098 465.38 173.492 465.989 176.192L468.418 186.97L468.407 187.046L455.837 267.855C455.701 268.751 455.235 269.569 454.525 270.16C453.815 270.751 452.908 271.077 451.97 271.076Z" fill="#54A048"/>
<path d="M488.448 154.641C486.229 155.008 484.403 152.03 484.127 149.935C483.851 147.84 484.643 145.835 484.729 143.753C484.815 141.672 483.798 139.143 481.556 138.526C479.206 137.879 477.028 139.697 474.623 139.478C471.271 139.173 469.588 135.39 469.182 132.33C468.776 129.27 468.456 125.646 465.554 123.901C462.659 122.161 459.079 123.427 455.754 123.481C450.134 123.572 444.413 119.439 443.099 114.339C443.781 114.529 444.509 114.493 445.167 114.239C445.826 113.985 446.378 113.526 446.736 112.935C447.017 112.304 447.075 111.601 446.899 110.936C446.724 110.271 446.325 109.68 445.765 109.256L452.136 112.265C451.265 110.556 452.58 108.61 454.39 107.962C456.2 107.315 458.305 107.606 460.303 107.905C470.278 109.4 481.831 108.663 488.448 115.997C493.031 121.078 496.803 130.744 496.288 136.999C495.773 143.254 488.448 154.641 488.448 154.641Z" fill="#2F2E41"/>
<path d="M275.599 175.576H53.4609C51.8528 175.574 50.3104 174.961 49.1687 173.869C48.027 172.777 47.3782 171.295 47.3632 169.744L43.8784 78.9672C43.8802 77.4081 44.5233 75.9134 45.6665 74.811C46.8096 73.7085 48.3596 73.0884 49.9763 73.0867H272.115C273.723 73.0883 275.265 73.7018 276.407 74.7938C277.549 75.8858 278.197 77.3682 278.212 78.9188L281.697 169.696C281.695 171.255 281.052 172.749 279.909 173.852C278.766 174.954 277.216 175.574 275.599 175.576ZM45.6209 78.9229L49.1052 169.696C49.1065 170.809 49.5659 171.877 50.3824 172.664C51.199 173.452 52.3061 173.895 53.4609 173.896H275.599C276.746 173.895 277.846 173.458 278.661 172.68C279.477 171.902 279.941 170.846 279.955 169.74L276.47 78.9672C276.469 77.8536 276.01 76.786 275.193 75.9985C274.376 75.2111 273.269 74.7681 272.115 74.7668H49.9763C48.8295 74.7681 47.7293 75.205 46.9141 75.9829C46.0989 76.7608 45.6343 77.817 45.6209 78.9229Z" fill="#3F3D56"/>
<path d="M317.414 309.148H95.2753C93.6673 309.147 92.1249 308.533 90.9832 307.441C89.8414 306.349 89.1926 304.867 89.1776 303.316L85.6929 212.539C85.6947 210.98 86.3377 209.486 87.4809 208.383C88.6241 207.281 90.1741 206.661 91.7908 206.659H313.929C315.537 206.661 317.08 207.274 318.221 208.366C319.363 209.458 320.012 210.94 320.027 212.491L323.511 303.268C323.51 304.827 322.867 306.322 321.723 307.424C320.58 308.526 319.03 309.147 317.414 309.148ZM87.4353 212.495L90.9197 303.268C90.921 304.381 91.3803 305.449 92.1969 306.236C93.0134 307.024 94.1205 307.467 95.2753 307.468H317.414C318.56 307.467 319.661 307.03 320.476 306.252C321.291 305.474 321.756 304.418 321.769 303.312L318.285 212.539C318.283 211.426 317.824 210.358 317.008 209.571C316.191 208.783 315.084 208.34 313.929 208.339H91.7908C90.644 208.34 89.5438 208.777 88.7286 209.555C87.9134 210.333 87.4488 211.389 87.4353 212.495Z" fill="#3F3D56"/>
<path d="M147.979 226.401C146.477 226.401 145.037 226.976 143.975 228C142.913 229.024 142.316 230.413 142.316 231.861C142.316 233.31 142.913 234.699 143.975 235.723C145.037 236.747 146.477 237.322 147.979 237.322H261.226C262.727 237.322 264.168 236.747 265.23 235.723C266.291 234.699 266.888 233.31 266.888 231.861C266.888 230.413 266.291 229.024 265.23 228C264.168 226.976 262.727 226.401 261.226 226.401H147.979Z" fill="#313138"/>
<path d="M147.979 252.443C146.477 252.443 145.037 253.018 143.975 254.042C142.913 255.067 142.316 256.455 142.316 257.904C142.316 259.352 142.913 260.741 143.975 261.765C145.037 262.789 146.477 263.364 147.979 263.364H261.226C262.727 263.364 264.168 262.789 265.23 261.765C266.291 260.741 266.888 259.352 266.888 257.904C266.888 256.455 266.291 255.067 265.23 254.042C264.168 253.018 262.727 252.443 261.226 252.443H147.979Z" fill="#313138"/>
<path d="M147.979 278.486C146.477 278.486 145.037 279.061 143.975 280.085C142.913 281.109 142.316 282.498 142.316 283.946C142.316 285.394 142.913 286.783 143.975 287.807C145.037 288.831 146.477 289.407 147.979 289.407H261.226C262.727 289.407 264.168 288.831 265.23 287.807C266.291 286.783 266.888 285.394 266.888 283.946C266.888 282.498 266.291 281.109 265.23 280.085C264.168 279.061 262.727 278.486 261.226 278.486H147.979Z" fill="#313138"/>
<path d="M106.164 92.8286C104.663 92.8286 103.222 93.4039 102.16 94.428C101.099 95.452 100.502 96.8409 100.502 98.2891C100.502 99.7373 101.099 101.126 102.16 102.15C103.222 103.174 104.663 103.75 106.164 103.75H219.411C220.913 103.75 222.353 103.174 223.415 102.15C224.477 101.126 225.074 99.7373 225.074 98.2891C225.074 96.8409 224.477 95.452 223.415 94.428C222.353 93.4039 220.913 92.8286 219.411 92.8286H106.164Z" fill="#313138"/>
<path d="M106.164 118.871C104.663 118.871 103.222 119.446 102.16 120.47C101.099 121.494 100.502 122.883 100.502 124.331C100.502 125.78 101.099 127.168 102.16 128.193C103.222 129.217 104.663 129.792 106.164 129.792H219.411C220.913 129.792 222.353 129.217 223.415 128.193C224.477 127.168 225.074 125.78 225.074 124.331C225.074 122.883 224.477 121.494 223.415 120.47C222.353 119.446 220.913 118.871 219.411 118.871H106.164Z" fill="#313138"/>
<path d="M106.164 144.913C104.663 144.913 103.222 145.489 102.16 146.513C101.099 147.537 100.502 148.926 100.502 150.374C100.502 151.822 101.099 153.211 102.16 154.235C103.222 155.259 104.663 155.834 106.164 155.834H219.411C220.913 155.834 222.353 155.259 223.415 154.235C224.477 153.211 225.074 151.822 225.074 150.374C225.074 148.926 224.477 147.537 223.415 146.513C222.353 145.489 220.913 144.913 219.411 144.913H106.164Z" fill="#313138"/>
</svg>
