<svg width="1024" height="1024" viewBox="0 0 1024 1024" fill="none" xmlns="http://www.w3.org/2000/svg">
<path d="M924.8 385.6C902.312 332.371 869.709 284.011 828.8 243.2C787.989 202.291 739.629 169.688 686.4 147.2C631.1 123.8 572.5 112 512 112C451.5 112 392.9 123.8 337.6 147.2C284.371 169.688 236.011 202.291 195.2 243.2C154.291 284.011 121.688 332.371 99.2 385.6C75.8 440.9 64 499.5 64 560C64 692.7 122.3 817.7 223.9 903.1L225.6 904.5C231.4 909.3 238.7 912 246.2 912H777.9C785.4 912 792.7 909.3 798.5 904.5L800.2 903.1C901.7 817.7 960 692.7 960 560C960 499.5 948.1 440.9 924.8 385.6ZM761.4 836H262.6C223.96 801.159 193.077 758.583 171.956 711.035C150.835 663.486 139.947 612.028 140 560C140 460.6 178.7 367.2 249 297C319.3 226.7 412.7 188 512 188C611.4 188 704.8 226.7 775 297C845.3 367.3 884 460.7 884 560C884 665.6 839.5 765.5 761.4 836ZM623.5 421.5C621.996 420.011 619.966 419.176 617.85 419.176C615.734 419.176 613.704 420.011 612.2 421.5L527.7 506C509 501 488.3 505.8 473.6 520.5C468.393 525.697 464.263 531.869 461.444 538.664C458.626 545.459 457.175 552.744 457.175 560.1C457.175 567.456 458.626 574.741 461.444 581.536C464.263 588.331 468.393 594.503 473.6 599.7C478.797 604.907 484.969 609.037 491.764 611.856C498.559 614.674 505.844 616.125 513.2 616.125C520.556 616.125 527.841 614.674 534.636 611.856C541.431 609.037 547.603 604.907 552.8 599.7C559.765 592.756 564.773 584.097 567.319 574.598C569.865 565.099 569.858 555.096 567.3 545.6L651.8 461.1C654.9 458 654.9 452.9 651.8 449.8L623.5 421.5V421.5ZM490 320H534C538.4 320 542 316.4 542 312V232C542 227.6 538.4 224 534 224H490C485.6 224 482 227.6 482 232V312C482 316.4 485.6 320 490 320ZM750 538V582C750 586.4 753.6 590 758 590H838C842.4 590 846 586.4 846 582V538C846 533.6 842.4 530 838 530H758C753.6 530 750 533.6 750 538ZM762.7 340.8L731.6 309.7C730.096 308.211 728.066 307.376 725.95 307.376C723.834 307.376 721.804 308.211 720.3 309.7L663.7 366.3C662.211 367.804 661.376 369.834 661.376 371.95C661.376 374.066 662.211 376.096 663.7 377.6L694.8 408.7C697.9 411.8 703 411.8 706.1 408.7L762.7 352.1C765.8 349 765.8 343.9 762.7 340.8ZM304.1 309.7C302.596 308.211 300.566 307.376 298.45 307.376C296.334 307.376 294.304 308.211 292.8 309.7L261.7 340.8C260.211 342.304 259.376 344.334 259.376 346.45C259.376 348.566 260.211 350.596 261.7 352.1L318.3 408.7C321.4 411.8 326.5 411.8 329.6 408.7L360.7 377.6C363.8 374.5 363.8 369.4 360.7 366.3L304.1 309.7ZM262 530H182C177.6 530 174 533.6 174 538V582C174 586.4 177.6 590 182 590H262C266.4 590 270 586.4 270 582V538C270 533.6 266.4 530 262 530Z" fill="white"/>
</svg>
