<svg width="100" height="100" viewBox="0 0 100 100" fill="none" xmlns="http://www.w3.org/2000/svg">
<path d="M83.3333 91.6666H16.6667C15.5616 91.6666 14.5018 91.2276 13.7204 90.4462C12.939 89.6648 12.5 88.605 12.5 87.4999V12.4999C12.5 11.3949 12.939 10.335 13.7204 9.55364C14.5018 8.77224 15.5616 8.33325 16.6667 8.33325H83.3333C84.4384 8.33325 85.4982 8.77224 86.2796 9.55364C87.061 10.335 87.5 11.3949 87.5 12.4999V87.4999C87.5 88.605 87.061 89.6648 86.2796 90.4462C85.4982 91.2276 84.4384 91.6666 83.3333 91.6666ZM79.1667 83.3333V16.6666H20.8333V83.3333H79.1667ZM33.3333 29.1666H66.6667V37.4999H33.3333V29.1666ZM33.3333 45.8333H66.6667V54.1666H33.3333V45.8333ZM33.3333 62.4999H54.1667V70.8333H33.3333V62.4999Z" fill="white"/>
</svg>
