<svg width="151" height="151" viewBox="0 0 151 151" fill="none" xmlns="http://www.w3.org/2000/svg">
<path d="M103.812 56.625C103.812 64.1339 100.83 71.3353 95.52 76.645C90.2103 81.9546 83.0089 84.9375 75.5 84.9375C67.9911 84.9375 60.7897 81.9546 55.48 76.645C50.1704 71.3353 47.1875 64.1339 47.1875 56.625C47.1875 49.1161 50.1704 41.9147 55.48 36.605C60.7897 31.2954 67.9911 28.3125 75.5 28.3125C83.0089 28.3125 90.2103 31.2954 95.52 36.605C100.83 41.9147 103.812 49.1161 103.812 56.625V56.625Z" fill="white"/>
<path fill-rule="evenodd" clip-rule="evenodd" d="M0 75.5C0 55.4762 7.95444 36.2724 22.1134 22.1134C36.2724 7.95444 55.4762 0 75.5 0C95.5238 0 114.728 7.95444 128.887 22.1134C143.046 36.2724 151 55.4762 151 75.5C151 95.5238 143.046 114.728 128.887 128.887C114.728 143.046 95.5238 151 75.5 151C55.4762 151 36.2724 143.046 22.1134 128.887C7.95444 114.728 0 95.5238 0 75.5V75.5ZM75.5 9.4375C63.0593 9.43816 50.8716 12.9517 40.3397 19.5736C29.8078 26.1956 21.3597 35.6569 15.9679 46.8685C10.5761 58.08 8.45965 70.5863 9.86217 82.9477C11.2647 95.3091 16.1292 107.023 23.8958 116.742C30.5964 105.945 45.3472 94.375 75.5 94.375C105.653 94.375 120.394 105.936 127.104 116.742C134.871 107.023 139.735 95.3091 141.138 82.9477C142.54 70.5863 140.424 58.08 135.032 46.8685C129.64 35.6569 121.192 26.1956 110.66 19.5736C100.128 12.9517 87.9407 9.43816 75.5 9.4375V9.4375Z" fill="white"/>
</svg>
