<svg width="41" height="36" viewBox="0 0 41 36" fill="none" xmlns="http://www.w3.org/2000/svg">
<g clip-path="url(#clip0_66_383)">
<path d="M5.08301 23.1366L25.5151 5.20068L35.0719 13.5943L14.6392 31.5302L5.08301 23.1366Z" fill="#FFCE31"/>
<path d="M39.2705 2.5875L38.0533 1.51875C35.7471 -0.50625 32.0314 -0.50625 29.6611 1.51875L25.4971 5.175L35.1064 13.6125L39.2705 9.95625C41.5768 7.93125 41.5768 4.6125 39.2705 2.5875Z" fill="#ED4C5C"/>
<path d="M22.9229 7.48706L25.5494 5.17969L35.1075 13.5722L32.481 15.879L22.9229 7.48706Z" fill="#93A2AA"/>
<path d="M23.9199 8.3615L26.5465 6.05469L34.0668 12.6573L31.4389 14.9636L23.9199 8.3615Z" fill="#C7D3D8"/>
<path d="M5.06055 23.1187L0.896484 32.6812L3.7793 35.2124L14.6699 31.5562L5.06055 23.1187Z" fill="#FED0AC"/>
<path d="M0.192404 34.3688C-0.384158 35.7188 0.384592 36.3376 1.92209 35.8313L7.17522 34.0876L2.2424 29.7563L0.192404 34.3688Z" fill="#333333"/>
<path d="M5.05469 23.161L22.9025 7.48975L26.0736 10.2741L8.22578 25.9454L5.05469 23.161Z" fill="#FFDF85"/>
<path d="M11.4697 28.7674L29.3175 13.0962L32.4886 15.8806L14.6408 31.5518L11.4697 28.7674Z" fill="#FF8736"/>
</g>
<defs>
<clipPath id="clip0_66_383">
<rect width="41" height="36" fill="white"/>
</clipPath>
</defs>
</svg>
