<svg width="100" height="100" viewBox="0 0 100 100" fill="none" xmlns="http://www.w3.org/2000/svg">
<mask id="path-1-inside-1_306_16" fill="white">
<path d="M47.0703 14.8438H52.9297C53.4505 14.8438 53.7109 15.1042 53.7109 15.625V84.375C53.7109 84.8958 53.4505 85.1562 52.9297 85.1562H47.0703C46.5495 85.1562 46.2891 84.8958 46.2891 84.375V15.625C46.2891 15.1042 46.5495 14.8438 47.0703 14.8438Z"/>
</mask>
<path d="M47.0703 14.8438H52.9297C53.4505 14.8438 53.7109 15.1042 53.7109 15.625V84.375C53.7109 84.8958 53.4505 85.1562 52.9297 85.1562H47.0703C46.5495 85.1562 46.2891 84.8958 46.2891 84.375V15.625C46.2891 15.1042 46.5495 14.8438 47.0703 14.8438Z" fill="white"/>
<path d="M47.0703 24.8438H52.9297V4.84375H47.0703V24.8438ZM52.9297 24.8438C51.6487 24.8438 48.8511 24.5167 46.4446 22.1101C44.038 19.7035 43.7109 16.906 43.7109 15.625H63.7109C63.7109 13.8231 63.2537 10.635 60.5867 7.96799C57.9197 5.30099 54.7316 4.84375 52.9297 4.84375V24.8438ZM43.7109 15.625V84.375H63.7109V15.625H43.7109ZM43.7109 84.375C43.7109 83.094 44.038 80.2965 46.4446 77.8899C48.8511 75.4833 51.6487 75.1562 52.9297 75.1562V95.1562C54.7316 95.1562 57.9197 94.699 60.5867 92.032C63.2537 89.365 63.7109 86.1769 63.7109 84.375H43.7109ZM52.9297 75.1562H47.0703V95.1562H52.9297V75.1562ZM47.0703 75.1562C48.3513 75.1562 51.1489 75.4833 53.5554 77.8899C55.962 80.2965 56.2891 83.094 56.2891 84.375H36.2891C36.2891 86.1769 36.7463 89.365 39.4133 92.032C42.0803 94.699 45.2684 95.1562 47.0703 95.1562V75.1562ZM56.2891 84.375V15.625H36.2891V84.375H56.2891ZM56.2891 15.625C56.2891 16.906 55.962 19.7035 53.5554 22.1101C51.1489 24.5167 48.3513 24.8438 47.0703 24.8438V4.84375C45.2684 4.84375 42.0803 5.30099 39.4133 7.96799C36.7463 10.635 36.2891 13.8231 36.2891 15.625H56.2891Z" fill="white" mask="url(#path-1-inside-1_306_16)"/>
<path d="M17.1875 46.2891H82.8125C83.3333 46.2891 83.5938 46.5495 83.5938 47.0703V52.9297C83.5938 53.4505 83.3333 53.7109 82.8125 53.7109H17.1875C16.6667 53.7109 16.4062 53.4505 16.4062 52.9297V47.0703C16.4062 46.5495 16.6667 46.2891 17.1875 46.2891Z" fill="white"/>
</svg>
