<svg width="598" height="404" viewBox="0 0 598 404" fill="none" xmlns="http://www.w3.org/2000/svg">
<g clip-path="url(#clip0_27_977)">
<path d="M305.411 403.144C323.397 403.144 337.977 389.166 337.977 371.924C337.977 354.682 323.397 340.704 305.411 340.704C287.425 340.704 272.844 354.682 272.844 371.924C272.844 389.166 287.425 403.144 305.411 403.144Z" fill="#FF0A0A"/>
<path d="M499.964 401.39C518.183 396.144 537.553 390.675 552.002 378.205C564.913 367.062 573.63 350.047 568.281 333.336C562.943 316.659 546.954 305.539 530.446 300.008C521.084 296.871 511.288 295.131 501.497 293.764C490.853 292.278 480.161 291.06 469.475 289.888C426.206 285.144 382.774 282.246 339.179 281.194C317.668 280.674 296.16 280.687 274.646 280.986C255.432 281.254 235.197 281.247 217.373 273.418C203.512 267.331 190.932 256.255 187.069 241.701C182.611 224.9 190.834 207.791 202.63 195.623C208.848 189.209 216.115 183.811 223.612 178.847C231.744 173.462 240.161 168.459 248.759 163.788C265.695 154.594 283.4 146.769 301.691 140.395C310.715 137.249 319.872 134.536 329.109 132.032C336.909 129.918 344.733 127.802 352.271 124.921C366.843 119.354 380.703 109.922 384.409 94.4607C387.92 79.8067 381.999 63.8986 371.619 53.0125C359.61 40.418 341.503 34.8969 324.143 34.0036C304.654 33.0008 285.614 37.6767 267.296 43.6111C247.758 49.9406 228.642 57.2184 208.692 62.3452C188.908 67.4242 168.742 71.0178 148.376 73.0934C138.406 74.1111 128.135 75.2603 118.106 74.4812C109.701 73.8282 101.339 71.4584 95.1442 65.7398C89.8326 60.8364 86.6685 54.0975 87.7563 46.9859C87.9539 45.6942 90.0007 46.2434 89.8044 47.5272C88.4802 56.184 94.6185 64.161 102.183 68.2472C110.925 72.9698 121.562 72.9762 131.295 72.4361C152.399 71.2142 173.36 68.3094 193.96 63.7518C214.203 59.3196 233.722 52.9834 253.22 46.215C271.737 39.7867 290.669 33.5127 310.452 32.1204C327.617 30.9123 345.674 33.3096 360.628 41.9093C373.771 49.4672 383.435 62.0714 386.514 76.5349C389.524 90.6685 385.356 104.894 374.196 114.757C362.641 124.969 346.797 129.335 332.032 133.356C313.305 138.456 294.979 144.417 277.241 152.158C259.261 159.981 242.017 169.275 225.701 179.935C209.951 190.253 194.409 203.235 189.427 221.642C187.107 230.216 187.535 239.31 191.418 247.408C194.87 254.609 200.555 260.666 207.178 265.338C222.981 276.485 242.897 278.774 261.985 279.002C283.423 279.257 304.862 278.564 326.307 278.901C370.011 279.589 413.626 282.139 457.152 286.552C468.058 287.659 478.951 288.882 489.83 290.222C499.615 291.427 509.433 292.625 519.054 294.765C536.16 298.572 552.805 305.89 563.437 319.794C568.156 325.821 571.079 332.963 571.895 340.458C572.64 348.279 570.642 356.115 566.954 363.072C558.789 378.472 543.496 388.267 527.256 394.703C518.557 398.149 509.534 400.761 500.529 403.353C499.217 403.731 498.656 401.766 499.964 401.39L499.964 401.39Z" fill="#E4D2D2"/>
<path d="M89.1274 63.4578C98.5113 63.4578 106.119 56.1651 106.119 47.1691C106.119 38.1732 98.5113 30.8805 89.1274 30.8805C79.7434 30.8805 72.1362 38.1732 72.1362 47.1691C72.1362 56.1651 79.7434 63.4578 89.1274 63.4578Z" fill="#E4D2D2"/>
<path d="M207.004 94.3384C216.388 94.3384 223.995 87.0457 223.995 78.0497C223.995 69.0538 216.388 61.7611 207.004 61.7611C197.62 61.7611 190.013 69.0538 190.013 78.0497C190.013 87.0457 197.62 94.3384 207.004 94.3384Z" fill="#E4D2D2"/>
<path d="M306.827 32.5773C316.211 32.5773 323.818 25.2846 323.818 16.2886C323.818 7.29267 316.211 0 306.827 0C297.443 0 289.835 7.29267 289.835 16.2886C289.835 25.2846 297.443 32.5773 306.827 32.5773Z" fill="#E4D2D2"/>
<path d="M369.127 101.804C378.511 101.804 386.119 94.5113 386.119 85.5153C386.119 76.5194 378.511 69.2267 369.127 69.2267C359.743 69.2267 352.136 76.5194 352.136 85.5153C352.136 94.5113 359.743 101.804 369.127 101.804Z" fill="#F2F2F2"/>
<path d="M284.88 181.89C294.264 181.89 301.871 174.597 301.871 165.601C301.871 156.605 294.264 149.312 284.88 149.312C275.496 149.312 267.889 156.605 267.889 165.601C267.889 174.597 275.496 181.89 284.88 181.89Z" fill="#E4D2D2"/>
<path d="M177.977 220.575C187.361 220.575 194.968 213.283 194.968 204.287C194.968 195.291 187.361 187.998 177.977 187.998C168.593 187.998 160.986 195.291 160.986 204.287C160.986 213.283 168.593 220.575 177.977 220.575Z" fill="#E4D2D2"/>
<path d="M291.251 280.979C300.635 280.979 308.243 273.686 308.243 264.69C308.243 255.694 300.635 248.402 291.251 248.402C281.867 248.402 274.26 255.694 274.26 264.69C274.26 273.686 281.867 280.979 291.251 280.979Z" fill="#F2F2F2"/>
<path d="M413.021 314.914C422.405 314.914 430.013 307.621 430.013 298.625C430.013 289.629 422.405 282.336 413.021 282.336C403.637 282.336 396.03 289.629 396.03 298.625C396.03 307.621 403.637 314.914 413.021 314.914Z" fill="#F2F2F2"/>
<path d="M555.322 307.448C564.706 307.448 572.313 300.155 572.313 291.159C572.313 282.163 564.706 274.871 555.322 274.871C545.938 274.871 538.331 282.163 538.331 291.159C538.331 300.155 545.938 307.448 555.322 307.448Z" fill="#E4D2D2"/>
<path d="M301.922 46.1535C251.025 46.4981 209.352 86.1488 208.629 134.938C208.622 135.388 208.619 138.555 208.619 142.698C208.62 148.772 211.136 154.597 215.617 158.892C220.097 163.187 226.173 165.6 232.509 165.601H232.509C235.649 165.6 238.759 165.007 241.661 163.853C244.562 162.7 247.198 161.01 249.417 158.88C251.637 156.749 253.397 154.221 254.597 151.438C255.797 148.656 256.413 145.674 256.41 142.663C256.408 139.845 256.406 137.894 256.406 137.775C256.405 130.234 258.451 122.824 262.343 116.271C266.235 109.719 271.839 104.251 278.605 100.405C285.37 96.5585 293.063 94.4669 300.927 94.3356C308.792 94.2043 316.556 96.0379 323.457 99.6558C330.358 103.274 336.158 108.552 340.285 114.97C344.413 121.388 346.727 128.726 346.999 136.262C347.272 143.798 345.493 151.272 341.838 157.949C338.183 164.626 332.779 170.275 326.155 174.342L326.164 174.352C326.164 174.352 292.161 195.337 281.795 224.124L281.804 224.126C279.981 230.024 279.057 236.143 279.061 242.293C279.061 244.822 279.216 266.945 279.516 284.9C279.621 291.096 282.262 297.003 286.87 301.348C291.478 305.694 297.683 308.128 304.146 308.127H304.146C307.394 308.127 310.61 307.511 313.608 306.315C316.607 305.119 319.329 303.366 321.619 301.158C323.908 298.95 325.719 296.329 326.948 293.447C328.177 290.565 328.799 287.479 328.779 284.365C328.675 267.921 328.619 248.773 328.619 247.384C328.619 229.707 346.407 212.095 361.018 200.61C377.843 187.384 389.951 169.361 394.814 149.03C395.89 144.844 396.483 140.558 396.583 136.248C396.583 124.361 394.13 112.592 389.364 101.619C384.599 90.6456 377.615 80.6846 368.816 72.3101C360.017 63.9355 349.576 57.3129 338.096 52.8237C326.615 48.3346 314.321 46.0676 301.922 46.1535Z" fill="#FF0A0A"/>
<path d="M597.157 404H0.842965C0.619821 403.999 0.406042 403.914 0.248483 403.763C0.0909245 403.611 0.00244141 403.406 0.00244141 403.192C0.00244141 402.978 0.0909245 402.773 0.248483 402.621C0.406042 402.47 0.619821 402.384 0.842965 402.384H597.157C597.381 402.384 597.595 402.469 597.753 402.62C597.911 402.772 598 402.978 598 403.192C598 403.406 597.911 403.612 597.753 403.763C597.595 403.915 597.381 404 597.157 404Z" fill="#3F3D56"/>
<path d="M444.92 185.28C456.65 185.28 466.159 176.165 466.159 164.92C466.159 153.675 456.65 144.559 444.92 144.559C433.19 144.559 423.681 153.675 423.681 164.92C423.681 176.165 433.19 185.28 444.92 185.28Z" fill="#2F2E41"/>
<path d="M405.672 395.087H396.993L392.864 362.993H405.674L405.672 395.087Z" fill="#A0616A"/>
<path d="M390.793 392.709H407.532V402.813H380.254C380.254 401.486 380.527 400.172 381.056 398.946C381.586 397.721 382.362 396.607 383.341 395.669C384.319 394.73 385.481 393.986 386.76 393.478C388.039 392.971 389.409 392.709 390.793 392.709Z" fill="#2F2E41"/>
<path d="M472.929 395.087H464.25L460.12 362.993H472.931L472.929 395.087Z" fill="#A0616A"/>
<path d="M458.05 392.709H474.789V402.813H447.51C447.51 401.486 447.783 400.172 448.313 398.946C448.842 397.721 449.618 396.607 450.597 395.669C451.576 394.73 452.738 393.986 454.016 393.478C455.295 392.971 456.666 392.709 458.05 392.709Z" fill="#2F2E41"/>
<path d="M441.692 185.399C451.295 185.399 459.08 177.936 459.08 168.73C459.08 159.524 451.295 152.061 441.692 152.061C432.088 152.061 424.303 159.524 424.303 168.73C424.303 177.936 432.088 185.399 441.692 185.399Z" fill="#A0616A"/>
<path d="M452.056 239.175L459.836 222.038C461.726 218.018 462.267 213.535 461.386 209.207C460.505 204.88 458.244 200.921 454.916 197.877C454.232 197.229 453.506 196.624 452.742 196.065C448.903 193.186 444.172 191.617 439.298 191.606C436.021 191.618 432.785 192.308 429.812 193.628C429.557 193.737 429.309 193.852 429.054 193.968C428.565 194.192 428.084 194.436 427.617 194.687C424.569 196.365 421.975 198.706 420.044 201.521C418.114 204.336 416.9 207.547 416.502 210.894L413.068 238.476C412.204 240.641 381.394 318.827 392.169 378.518C392.284 379.155 392.608 379.741 393.095 380.189C393.581 380.637 394.205 380.924 394.874 381.009L405.798 382.434C406.595 382.539 407.405 382.35 408.063 381.905C408.721 381.461 409.179 380.793 409.344 380.038L427.674 296.281C427.788 295.76 428.081 295.292 428.505 294.95C428.93 294.608 429.462 294.412 430.017 294.394C430.571 294.376 431.116 294.537 431.564 294.85C432.012 295.164 432.337 295.613 432.488 296.125L458.385 384.205C458.57 384.845 458.968 385.41 459.519 385.812C460.07 386.214 460.744 386.432 461.436 386.432C461.643 386.43 461.849 386.412 462.052 386.377L475.397 383.914C476.173 383.775 476.867 383.363 477.342 382.759C477.818 382.155 478.041 381.402 477.967 380.649C476.006 359.684 465.585 254.67 452.056 239.175Z" fill="#2F2E41"/>
<path d="M374.116 182.602C373.996 183.593 374.103 184.598 374.431 185.544C374.759 186.491 375.3 187.358 376.015 188.083C376.73 188.808 377.602 189.374 378.57 189.74C379.538 190.107 380.578 190.266 381.617 190.206L391.336 212.598L398.689 202.15L388.331 182.488C388.11 180.821 387.259 179.291 385.94 178.186C384.62 177.081 382.923 176.478 381.171 176.492C379.419 176.506 377.733 177.136 376.433 178.262C375.132 179.388 374.308 180.933 374.116 182.602L374.116 182.602Z" fill="#A0616A"/>
<path d="M440.727 261.722C441.761 261.604 442.755 261.269 443.639 260.743C444.523 260.216 445.276 259.511 445.845 258.675C446.413 257.839 446.784 256.895 446.931 255.907C447.077 254.919 446.996 253.912 446.693 252.958L467.143 238.679L454.831 234.259L437.299 248.496C435.66 249.091 434.306 250.241 433.492 251.729C432.679 253.216 432.463 254.939 432.886 256.569C433.308 258.199 434.34 259.624 435.785 260.574C437.23 261.524 438.989 261.932 440.727 261.722Z" fill="#A0616A"/>
<path d="M407.391 227.526C406.607 227.525 405.825 227.451 405.055 227.305C403.195 226.966 401.451 226.193 399.976 225.055C398.501 223.917 397.34 222.448 396.597 220.779L382.98 204.861C382.692 204.525 382.482 204.133 382.365 203.713C382.248 203.292 382.226 202.852 382.301 202.423C382.375 201.994 382.544 201.585 382.797 201.223C383.05 200.862 383.38 200.556 383.766 200.327L393.454 194.578C393.812 194.366 394.21 194.223 394.625 194.159C395.041 194.095 395.465 194.111 395.874 194.205C396.284 194.299 396.669 194.47 397.009 194.707C397.349 194.945 397.636 195.245 397.855 195.589L407.452 210.747L425.832 197.726C427.295 196.99 428.986 196.784 430.595 197.144C432.204 197.505 433.624 198.409 434.595 199.69C435.567 200.971 436.025 202.545 435.886 204.124C435.747 205.702 435.02 207.18 433.839 208.287L415.494 224.329C413.338 226.378 410.426 227.527 407.391 227.526Z" fill="#2F2E41"/>
<path d="M457.055 251.465C457.03 251.465 457.005 251.465 456.98 251.464C456.533 251.454 456.093 251.354 455.69 251.17C455.286 250.986 454.927 250.724 454.636 250.399L446.022 240.766C445.729 240.438 445.512 240.054 445.385 239.639C445.258 239.224 445.224 238.789 445.285 238.361C445.347 237.933 445.502 237.522 445.742 237.156C445.981 236.79 446.299 236.476 446.674 236.237L462.803 225.929L448.191 209.089C447.341 207.731 447.03 206.124 447.313 204.564C447.596 203.003 448.456 201.593 449.735 200.589C451.013 199.586 452.626 199.058 454.278 199.1C455.929 199.143 457.51 199.753 458.731 200.821L476.489 217.457C477.887 218.681 478.954 220.212 479.598 221.919C480.243 223.625 480.446 225.456 480.19 227.254C479.934 229.052 479.227 230.764 478.129 232.242C477.031 233.72 475.576 234.921 473.887 235.742L459.373 250.506C459.075 250.809 458.716 251.05 458.317 251.215C457.918 251.38 457.489 251.465 457.055 251.465Z" fill="#2F2E41"/>
<path d="M437.27 215.97C437.132 215.97 436.994 215.962 436.857 215.945C436.257 215.875 435.691 215.641 435.225 215.272C434.76 214.903 434.414 214.414 434.23 213.862L427.758 194.839C427.595 194.358 427.62 193.837 427.828 193.372C428.035 192.907 428.411 192.53 428.886 192.311L429.096 192.216C429.287 192.129 429.475 192.043 429.668 191.961C432.686 190.619 435.971 189.919 439.298 189.909C443.617 189.917 447.84 191.133 451.448 193.409C451.932 193.718 452.269 194.196 452.389 194.741C452.508 195.286 452.399 195.855 452.086 196.324L439.944 214.559C439.66 214.992 439.265 215.348 438.797 215.595C438.33 215.842 437.804 215.971 437.27 215.97Z" fill="#E6E6E6"/>
<path d="M461.664 155.83C465.502 155.83 468.614 152.847 468.614 149.167C468.614 145.488 465.502 142.505 461.664 142.505C457.826 142.505 454.714 145.488 454.714 149.167C454.714 152.847 457.826 155.83 461.664 155.83Z" fill="#2F2E41"/>
<path d="M437.84 141.844C432.958 141.844 428.276 143.703 424.824 147.013C421.372 150.322 419.433 154.81 419.433 159.49V166.956H429.011L433.592 159.49L434.966 166.956H464.034L456.247 159.49C456.247 154.81 454.307 150.322 450.855 147.013C447.403 143.703 442.722 141.844 437.84 141.844Z" fill="#2F2E41"/>
<path d="M465.236 144.604C466.005 142.3 467.596 140.33 469.73 139.039C471.864 137.749 474.404 137.221 476.904 137.548C481.333 138.258 484.835 141.671 486.921 145.483C489.008 149.295 489.971 153.561 491.374 157.65C492.777 161.74 494.766 165.852 498.307 168.499C501.848 171.146 507.282 171.864 510.76 169.141C510.363 171.979 509.045 174.625 506.993 176.706C504.94 178.786 502.258 180.196 499.324 180.735C496.391 181.274 493.355 180.915 490.645 179.709C487.936 178.503 485.691 176.511 484.228 174.015C482.393 170.885 481.919 167.216 481.375 163.664C480.83 160.112 480.123 156.436 477.932 153.524C475.742 150.612 471.64 148.71 468.16 150.036L465.236 144.604Z" fill="#2F2E41"/>
<path d="M239.254 154.768C232.918 154.767 226.842 152.354 222.362 148.059C217.882 143.764 215.365 137.939 215.364 131.865C215.364 127.722 215.367 124.555 215.374 124.105C215.575 109.915 219.303 95.9768 226.247 83.4449C214.837 98.4189 208.564 116.422 208.294 134.964C208.287 135.414 208.284 138.581 208.285 142.724C208.285 148.798 210.802 154.623 215.282 158.918C219.762 163.213 225.838 165.627 232.174 165.627C237.381 165.625 242.444 163.994 246.595 160.982C250.747 157.97 253.759 153.741 255.175 148.938C250.8 152.698 245.13 154.775 239.254 154.768Z" fill="#3F3D56"/>
<path d="M303.541 94.4126C310.866 94.7479 317.997 96.7825 324.32 100.342C330.644 103.901 335.973 108.878 339.848 114.846C343.723 120.814 346.03 127.595 346.569 134.605C347.109 141.616 345.866 148.648 342.946 155.097C347.169 150.342 350.273 144.771 352.046 138.762C353.819 132.753 354.22 126.449 353.221 120.278C352.223 114.107 349.848 108.215 346.258 103.004C342.669 97.7935 337.95 93.3857 332.422 90.0817C326.895 86.7776 320.69 84.6549 314.229 83.8584C307.768 83.0618 301.205 83.6101 294.985 85.4659C288.765 87.3217 283.036 90.4412 278.188 94.612C273.34 98.7827 269.488 103.907 266.893 109.634C271.378 104.576 277.015 100.573 283.369 97.934C289.723 95.2949 296.625 94.0901 303.541 94.4126Z" fill="#3F3D56"/>
<path d="M310.892 297.294C304.428 297.295 298.223 294.861 293.616 290.515C289.008 286.17 286.367 280.263 286.262 274.067C285.962 256.111 285.807 233.989 285.807 231.46C285.803 225.31 286.726 219.191 288.549 213.293L288.54 213.291C289.617 210.331 290.917 207.45 292.43 204.671C287.785 210.606 284.088 217.171 281.461 224.15L281.469 224.152C279.647 230.05 278.723 236.169 278.727 242.319C278.727 244.848 278.882 266.971 279.182 284.926C279.287 291.122 281.928 297.029 286.536 301.374C291.144 305.72 297.349 308.154 303.812 308.153C309.141 308.152 314.327 306.495 318.59 303.429C322.854 300.364 325.966 296.057 327.459 291.153C322.931 295.111 317.02 297.302 310.892 297.294Z" fill="#3F3D56"/>
<path d="M89.5866 395.396L98.2655 395.396L102.395 363.302L89.5845 363.302L89.5866 395.396Z" fill="#FFB8B8"/>
<path d="M115.005 403.122L87.7265 403.123L87.726 393.019L104.465 393.019C107.26 393.018 109.941 394.083 111.918 395.978C113.894 397.872 115.005 400.442 115.005 403.122L115.005 403.122Z" fill="#2F2E41"/>
<path d="M58.4362 395.396L67.1151 395.396L71.2447 363.302L58.4341 363.302L58.4362 395.396Z" fill="#FFB8B8"/>
<path d="M83.8545 403.122L56.5761 403.123L56.5756 393.019L73.3147 393.019C76.1099 393.018 78.7906 394.083 80.7672 395.978C82.7438 397.872 83.8544 400.442 83.8545 403.122L83.8545 403.122Z" fill="#2F2E41"/>
<path d="M66.0206 385.526L57.5427 385.098C57.1055 385.076 56.6773 384.971 56.2827 384.79C55.8882 384.608 55.5352 384.353 55.2443 384.039C54.9533 383.726 54.7302 383.36 54.5877 382.963C54.4453 382.566 54.3864 382.146 54.4145 381.727L64.5474 274.178L111.21 286.249L115.706 285.073L101.647 380.283C101.527 380.999 101.156 381.655 100.595 382.142C100.034 382.628 99.3167 382.917 98.5614 382.96L89.4223 383.368C88.9654 383.393 88.5081 383.326 88.0794 383.172C87.6508 383.019 87.26 382.781 86.9319 382.475C86.6038 382.169 86.3454 381.802 86.1731 381.395C86.0009 380.989 85.9184 380.552 85.931 380.114L87.5869 322.97C87.5947 322.706 87.4989 322.449 87.3185 322.249C87.1381 322.049 86.8861 321.921 86.6122 321.89C86.3383 321.86 86.0624 321.928 85.8388 322.083C85.6152 322.238 85.4601 322.467 85.4041 322.726L69.4347 383.002C69.2839 383.717 68.8791 384.36 68.2892 384.821C67.6994 385.283 66.9609 385.533 66.1999 385.531C66.1405 385.531 66.0807 385.529 66.0206 385.526Z" fill="#2F2E41"/>
<path d="M91.1447 186.179C100.748 186.179 108.533 178.716 108.533 169.51C108.533 160.303 100.748 152.84 91.1447 152.84C81.5414 152.84 73.7563 160.303 73.7563 169.51C73.7563 178.716 81.5414 186.179 91.1447 186.179Z" fill="#FFB8B8"/>
<path d="M62.1945 218.483L64.1064 258.029L64.7976 272.416C64.8251 273.043 65.047 273.647 65.4347 274.152C65.8224 274.657 66.3584 275.039 66.9741 275.25L111.814 290.822C112.176 290.951 112.56 291.015 112.946 291.012C113.388 291.014 113.825 290.931 114.233 290.767C114.64 290.603 115.009 290.363 115.317 290.059C115.625 289.756 115.866 289.396 116.026 289.002C116.186 288.607 116.262 288.186 116.248 287.762L114.41 216.658C114.289 210.824 112.049 205.213 108.076 200.793C104.102 196.373 98.6449 193.42 92.6441 192.444C92.2104 192.38 91.7692 192.317 91.3279 192.261C87.6069 191.818 83.8299 192.162 80.2627 193.269C76.6954 194.376 73.4245 196.219 70.6801 198.668C67.8384 201.174 65.6054 204.247 64.1391 207.671C62.6728 211.095 62.009 214.786 62.1945 218.483L62.1945 218.483Z" fill="#CCCCCC"/>
<path d="M133.234 282.931C132.173 282.615 131.204 282.067 130.404 281.328C129.604 280.59 128.995 279.683 128.626 278.679C128.257 277.675 128.137 276.602 128.277 275.546C128.418 274.49 128.813 273.48 129.433 272.597L114.227 253.213L127.349 252.435L139.777 270.961C141.107 271.947 142.033 273.351 142.392 274.926C142.75 276.501 142.519 278.147 141.739 279.575C140.958 281.003 139.678 282.122 138.123 282.736C136.568 283.349 134.837 283.418 133.234 282.931H133.234Z" fill="#FFB8B8"/>
<path d="M122.542 269.089C122.139 268.932 121.773 268.7 121.464 268.407C121.155 268.114 120.91 267.764 120.743 267.38L97.8348 215.056C97.3853 214.032 97.1508 212.933 97.1447 211.821C97.1385 210.71 97.3609 209.608 97.7991 208.579C98.2374 207.55 98.8828 206.614 99.6985 205.825C100.514 205.035 101.484 204.407 102.553 203.977C103.622 203.547 104.769 203.323 105.929 203.318C107.088 203.313 108.237 203.527 109.31 203.948C110.383 204.369 111.359 204.988 112.182 205.771C113.005 206.553 113.659 207.484 114.107 208.509L137.015 260.833C137.354 261.609 137.358 262.482 137.026 263.26C136.694 264.039 136.054 264.659 135.245 264.985L125.075 269.077C124.675 269.24 124.245 269.324 123.81 269.326C123.375 269.328 122.944 269.248 122.542 269.089L122.542 269.089Z" fill="#CCCCCC"/>
<path d="M85.5541 267.243L107.557 226.855C107.981 226.078 108.71 225.495 109.582 225.232C110.455 224.97 111.401 225.05 112.212 225.455L144.149 241.445C144.96 241.852 145.568 242.55 145.842 243.386C146.116 244.223 146.033 245.13 145.61 245.907L123.607 286.295C123.183 287.072 122.454 287.656 121.582 287.918C120.709 288.181 119.763 288.101 118.952 287.696L87.015 271.706C86.2047 271.299 85.5959 270.601 85.322 269.764C85.0482 268.928 85.1316 268.021 85.5541 267.243Z" fill="#3F3D56"/>
<path d="M100.31 248.791C99.9193 247.795 99.2906 246.9 98.4746 246.178C97.6586 245.456 96.6779 244.927 95.6107 244.633C94.5435 244.339 93.4193 244.288 92.328 244.484C91.2366 244.681 90.2083 245.119 89.3249 245.764L68.2429 232.357L68.207 244.96L88.2324 255.759C89.3378 256.974 90.8542 257.777 92.5156 258.028C94.1769 258.278 95.8772 257.96 97.3181 257.128C98.759 256.297 99.8487 255.006 100.396 253.481C100.943 251.957 100.913 250.296 100.31 248.791Z" fill="#FFB8B8"/>
<path d="M73.6553 251.625L56.4257 238.542C54.5618 237.942 52.8776 236.917 51.5177 235.556C50.1578 234.194 49.1628 232.537 48.6182 230.726C48.0735 228.915 47.9954 227.004 48.3905 225.158C48.7857 223.311 49.6424 221.584 50.887 220.125L66.531 200.471C67.6181 199.197 69.1471 198.341 70.8383 198.059C72.5295 197.777 74.27 198.088 75.7417 198.935C77.2134 199.782 78.318 201.109 78.8535 202.672C79.389 204.236 79.3197 205.932 78.6582 207.45L66.2802 226.861L84.4707 235.132C84.8937 235.325 85.2693 235.601 85.5727 235.942C85.8761 236.284 86.1004 236.684 86.2307 237.115C86.3611 237.546 86.3946 237.999 86.3289 238.443C86.2633 238.887 86.1 239.313 85.8499 239.693L78.5071 250.833C78.2588 251.209 77.931 251.531 77.5448 251.778C77.1586 252.024 76.7226 252.191 76.2651 252.266C76.247 252.269 76.2287 252.271 76.2104 252.274C75.7609 252.339 75.3022 252.315 74.8627 252.204C74.4232 252.092 74.0123 251.895 73.6553 251.625Z" fill="#CCCCCC"/>
<path d="M78.0058 180.672C77.9312 180.463 77.9076 180.24 77.9367 180.02C77.9658 179.801 78.0468 179.591 78.1737 179.406C78.3005 179.222 78.4698 179.067 78.6685 178.955C78.8672 178.843 79.0901 178.775 79.3201 178.758C79.791 178.783 80.2519 178.899 80.6749 179.099C81.0979 179.299 81.4741 179.579 81.781 179.922C82.4103 180.618 83.1429 181.221 83.9553 181.712C84.7965 182.119 85.9373 182.061 86.4168 181.286C86.8671 180.558 86.5585 179.584 86.2859 178.738C85.5923 176.588 85.2041 174.357 85.132 172.108C85.0535 169.596 85.4231 166.975 86.8734 165.016C88.7452 162.489 92.0921 161.529 95.2596 161.598C98.427 161.668 101.543 162.605 104.681 163.198C105.764 163.402 107.037 163.507 107.761 162.702C108.532 161.847 108.249 160.462 107.921 159.306C107.071 156.308 106.169 153.208 104.193 150.787C102.057 148.271 99.0065 146.624 95.6548 146.179C92.4369 145.797 89.1705 146.152 86.1239 147.216C81.1603 148.716 76.7926 151.633 73.6051 155.576C70.3192 159.771 68.8993 165.041 69.656 170.236C70.3952 174.761 72.8962 178.849 76.6548 181.676L78.0058 180.672Z" fill="#2F2E41"/>
<path d="M298.235 395.529C293.609 393.597 289.515 390.661 286.275 386.953C283.035 383.244 280.738 378.865 279.566 374.16C278.394 369.455 278.379 364.553 279.522 359.841C280.664 355.129 282.934 350.737 286.15 347.01C282.421 349.62 279.313 352.962 277.033 356.812C274.753 360.662 273.354 364.932 272.928 369.34C272.501 373.749 273.058 378.193 274.56 382.379C276.063 386.566 278.477 390.398 281.642 393.621C284.808 396.844 288.652 399.385 292.92 401.076C297.188 402.766 301.783 403.567 306.398 403.424C311.014 403.282 315.545 402.201 319.691 400.252C323.837 398.302 327.504 395.53 330.447 392.119C325.856 395.335 320.467 397.342 314.815 397.941C309.164 398.539 303.447 397.707 298.235 395.529Z" fill="#3F3D56"/>
</g>
<defs>
<clipPath id="clip0_27_977">
<rect width="598" height="404" fill="white"/>
</clipPath>
</defs>
</svg>
