<svg width="559" height="445" viewBox="0 0 559 445" fill="none" xmlns="http://www.w3.org/2000/svg">
<path d="M349.656 411.528L396.113 342.44L349.751 418.96L349.848 426.734C346.456 426.76 343.097 426.704 339.772 426.565L342.076 326.634L342.013 325.863L342.098 325.714L342.318 316.272L291.441 242.404L342.258 309.204L342.438 311.2L344.179 235.699L300.235 159.115L344.304 222.435L343.844 66.0159L343.845 65.4952L343.86 66.0072L346.777 189.287L386.827 139.211L346.908 199.907L347.782 267.441L384.636 201.53L347.918 277.37L348.404 314.922L402 223.109L348.567 328.023L349.656 411.528Z" fill="#72C34B"/>
<path d="M506.006 413.704L552.463 344.616L506.101 421.136L506.198 428.91C502.806 428.936 499.447 428.88 496.122 428.741L498.426 328.81L498.363 328.039L498.448 327.89L498.668 318.448L447.792 244.581L498.608 311.38L498.789 313.376L500.529 237.875L456.585 161.292L500.654 224.611L500.194 68.192L500.195 67.6714L500.21 68.1834L503.127 191.463L543.177 141.387L503.258 202.083L504.132 269.617L540.986 203.707L504.268 279.546L504.754 317.099L558.35 225.286L504.917 330.199L506.006 413.704Z" fill="#72C34B"/>
<path d="M554 445H0V443H554V445Z" fill="#3F3D56"/>
<path d="M171.988 133.907C171.988 133.907 165.702 87.8139 155.227 100.385C144.751 112.956 155.227 131.812 155.227 131.812L163.607 142.288L171.988 136.003V133.907Z" fill="#FFB8B8"/>
<path d="M197.13 148.574C197.13 148.574 176.178 125.527 171.988 129.717C167.797 133.907 155.226 136.003 157.322 144.383C159.417 152.764 203.415 180.001 203.415 180.001L197.13 148.574Z" fill="#6C63FF"/>
<path opacity="0.1" d="M197.13 148.574C197.13 148.574 176.178 125.527 171.988 129.717C167.797 133.907 155.226 136.003 157.322 144.383C159.417 152.764 203.415 180.001 203.415 180.001L197.13 148.574Z" fill="black"/>
<path d="M316.554 146.478V163.24C316.554 163.24 318.649 200.953 306.078 198.857C293.507 196.762 299.793 165.335 299.793 165.335L301.888 146.478L316.554 146.478Z" fill="#FFB8B8"/>
<path d="M310.268 267.998C310.268 267.998 329.125 297.33 335.41 299.425C341.696 301.52 375.218 320.377 379.409 339.233L408.741 376.946L394.075 395.802C394.075 395.802 327.03 324.567 308.173 318.281C289.317 311.996 270.46 280.568 270.46 280.568L310.268 267.998Z" fill="#FFB8B8"/>
<path d="M161.512 219.809C161.512 219.809 121.704 226.094 127.989 251.236C134.275 276.378 195.035 328.757 195.035 328.757L197.13 341.328L220.177 345.518L230.652 335.043L228.557 328.757C228.557 328.757 203.415 305.71 201.32 297.33C199.225 288.949 176.178 255.427 165.702 253.332L180.368 244.951L161.512 219.809Z" fill="#FFB8B8"/>
<path d="M402.455 376.946C402.455 376.946 394.075 364.375 406.646 366.47C419.217 368.565 427.597 370.66 427.597 379.041C427.597 387.422 417.122 446.086 404.551 441.896C391.98 437.705 402.455 418.849 402.455 418.849C402.455 418.849 396.17 402.088 391.98 399.993C387.789 397.897 387.789 387.422 391.98 387.422C396.17 387.422 404.551 381.136 402.455 376.946Z" fill="#2F2E41"/>
<path d="M224.367 330.852C224.367 330.852 224.367 320.377 232.747 330.852C241.128 341.328 245.318 349.709 236.938 355.994C228.557 362.28 199.225 376.946 199.225 376.946C199.225 376.946 167.797 383.231 171.988 368.565C171.988 368.565 192.939 358.089 192.939 349.709C192.939 341.328 192.939 326.662 199.225 330.852C205.51 335.043 224.367 337.138 224.367 330.852Z" fill="#2F2E41"/>
<path d="M264.175 173.715C264.175 173.715 293.507 177.906 291.412 219.809C291.412 219.809 329.125 257.522 318.649 270.093C308.173 282.664 285.126 305.71 276.746 299.425C268.365 293.14 243.223 244.951 243.223 244.951C243.223 244.951 184.559 265.902 174.083 255.427C163.607 244.951 153.131 219.809 153.131 219.809L205.51 192.572L264.175 173.715Z" fill="#2F2E41"/>
<path d="M182.464 54.2914C196.349 54.2914 207.606 43.035 207.606 29.1495C207.606 15.264 196.349 4.00757 182.464 4.00757C168.578 4.00757 157.322 15.264 157.322 29.1495C157.322 43.035 168.578 54.2914 182.464 54.2914Z" fill="#FFB8B8"/>
<path d="M201.32 31.2446C201.32 31.2446 215.986 54.2914 220.177 56.3865C224.367 58.4817 190.844 79.4333 190.844 79.4333C190.844 79.4333 190.844 52.1962 180.369 45.9107L201.32 31.2446Z" fill="#FFB8B8"/>
<path d="M203.415 54.2914C203.415 54.2914 236.938 43.8156 243.223 60.5769C249.509 77.3381 264.175 108.765 262.08 129.717C259.985 150.669 255.794 146.478 262.08 152.764C268.365 159.049 272.556 154.859 270.461 163.24C268.365 171.62 266.27 171.62 268.365 175.811C270.461 180.001 243.223 194.667 220.177 196.762L197.13 198.857C197.13 198.857 197.13 161.144 192.94 152.764C188.749 144.383 180.369 127.622 180.369 121.336V104.706C180.369 93.6363 183.257 82.7586 188.749 73.1478V73.1478C188.749 73.1478 201.32 54.2914 203.415 54.2914Z" fill="#6C63FF"/>
<path d="M228.557 62.672C228.557 62.672 306.078 68.9575 314.459 89.9091C322.84 110.861 327.03 152.764 318.649 152.764C310.269 152.764 299.793 156.954 297.698 152.764C295.602 148.574 287.222 106.67 285.127 106.67C283.031 106.67 220.177 100.385 220.177 100.385C220.177 100.385 192.94 66.8623 228.557 62.672Z" fill="#6C63FF"/>
<path d="M181.453 22.9165C181.453 22.9165 174.781 11.3219 166.442 21.3928C158.102 31.4638 144.535 12.9566 146.617 9.00757C148.7 5.05853 156.055 9.18513 168.659 5.06473C181.264 0.94433 205.544 -7.44973 209.61 19.932C213.677 47.3137 203.992 44.4432 203.992 44.4432C203.992 44.4432 199.553 20.18 195.541 27.1494L191.529 34.1189L188.049 34.9754L181.453 22.9165Z" fill="#2F2E41"/>
</svg>
