<svg width="61" height="61" viewBox="0 0 61 61" fill="none" xmlns="http://www.w3.org/2000/svg">
<path d="M27.5105 0.168801C27.7762 0.0542404 28.0603 -0.00307714 28.3467 0.00012731C28.633 0.00333176 28.916 0.066995 29.1793 0.187476L50.5296 9.99189C50.8912 10.1581 51.2039 10.426 51.4348 10.7673C51.6656 11.1086 51.8059 11.5105 51.8408 11.9304C51.8756 12.3502 51.8037 12.7724 51.6327 13.152C51.4617 13.5316 51.198 13.8545 50.8695 14.0864L50.8608 14.0957L50.8172 14.1284L50.6168 14.2778C49.4937 15.1397 48.4333 16.0918 47.4447 17.1258C45.728 18.9279 44.1899 21.0849 43.654 23.2138C44.6997 26.4586 46.1855 30.175 47.4578 33.177C48.1505 34.8057 48.8637 36.4244 49.5972 38.0325L56.5557 42.5145C57.9105 43.385 59.0319 44.6166 59.8107 46.0893C60.5895 47.5619 60.9992 49.2256 61 50.9183V58.3603C61.0003 58.9675 60.7797 59.5509 60.3852 59.9867C59.9906 60.4225 59.4532 60.6765 58.8868 60.6947L58.8214 58.3603L58.8868 60.6947H58.7386C58.1316 60.7118 57.5243 60.7118 56.9173 60.6947C49.5641 60.5111 42.2576 59.3873 35.1531 57.3472C22.4736 53.6495 7.57197 45.7826 0.208299 29.0078C0.0675435 28.6881 -0.00363131 28.3384 0.000142608 27.985C0.00391653 27.6315 0.0825406 27.2836 0.230085 26.9675C2.49583 22.1167 7.07089 16.4021 12.0817 11.4906C17.0794 6.58369 22.796 2.18571 27.5062 0.168801H27.5105ZM56.6428 56.0166V53.5095C29.0748 50.8903 13.7679 38.6441 6.26046 25.3148C5.63737 26.2625 5.08401 27.1823 4.62215 28.06C11.354 42.3324 24.4344 49.3823 36.299 52.8418C42.9413 54.7479 49.7691 55.8134 56.6428 56.0166ZM54.316 46.5156L48.2639 42.6266L44.386 46.7818C48.2831 47.7144 52.2313 48.3818 56.2071 48.78C55.8043 47.8381 55.1451 47.0488 54.316 46.5156ZM39.8458 20.702C40.8784 17.8821 42.7825 15.487 44.3903 13.7923C44.752 13.4188 45.1049 13.0639 45.4448 12.7371L28.3166 4.87492C24.7306 6.60236 20.2863 9.93119 16.0729 13.923L21.149 19.3574C21.3512 19.5746 21.5114 19.8324 21.6206 20.116C21.7298 20.3995 21.7857 20.7034 21.7852 21.0102V36.4031C24.1511 38.2239 26.8134 39.928 29.8024 41.464L34.3688 34.9371L26.5084 22.3034C26.2735 21.9247 26.147 21.4807 26.1444 21.026C26.1418 20.5713 26.2632 20.1257 26.4936 19.7439C26.7241 19.3621 27.0536 19.0607 27.4417 18.8767C27.8298 18.6928 28.2596 18.6343 28.6783 18.7085L39.8458 20.702Z" fill="black"/>
</svg>
