<svg width="220" height="208" viewBox="0 0 220 208" fill="none" xmlns="http://www.w3.org/2000/svg">
<g filter="url(#filter0_d_305_8)">
<path d="M99.6104 0.556112C100.534 0.178694 101.521 -0.0101376 102.516 0.000419421C103.511 0.0109764 104.495 0.220714 105.41 0.617636L179.611 32.9181C180.868 33.4656 181.955 34.3484 182.757 35.4728C183.559 36.5972 184.047 37.9213 184.168 39.3045C184.289 40.6877 184.039 42.0783 183.445 43.3289C182.851 44.5795 181.934 45.6433 180.792 46.4074L180.762 46.4382L180.611 46.5458L179.914 47.038C176.011 49.8775 172.325 53.014 168.89 56.4206C162.924 62.3577 157.578 69.4638 155.715 76.4776C159.35 87.1675 164.514 99.4109 168.935 109.301C171.343 114.667 173.821 120 176.371 125.297L200.554 140.063C205.263 142.931 209.16 146.989 211.867 151.84C214.573 156.692 215.997 162.173 216 167.75V192.267C216.001 194.267 215.234 196.189 213.863 197.625C212.492 199.061 210.624 199.898 208.656 199.958L208.428 192.267L208.656 199.958H208.141C206.031 200.014 203.921 200.014 201.811 199.958C176.255 199.353 150.862 195.651 126.171 188.929C82.105 176.748 30.3157 150.83 4.72392 95.5657C4.23474 94.5126 3.98738 93.3604 4.0005 92.196C4.01361 91.0317 4.28686 89.8855 4.79964 88.8441C12.674 72.863 28.5743 54.0365 45.9888 37.8555C63.3579 21.6899 83.2256 7.20078 99.5952 0.556112H99.6104ZM200.857 184.546V176.286C105.047 167.657 51.8492 127.312 25.7576 83.3991C23.5922 86.5215 21.669 89.5516 20.0639 92.4433C43.4599 139.464 88.9194 162.689 130.154 174.087C153.239 180.366 176.968 183.876 200.857 184.546V184.546ZM192.771 153.245L171.737 140.433L158.259 154.122C171.803 157.194 185.525 159.393 199.343 160.705C197.943 157.602 195.652 155.001 192.771 153.245V153.245ZM142.48 68.2025C146.069 58.9123 152.687 51.0218 158.275 45.4384C159.531 44.2079 160.758 43.0389 161.939 41.9622L102.412 16.0603C89.9491 21.7514 74.5032 32.7182 59.8598 45.8691L77.5015 63.7728C78.2042 64.4883 78.7611 65.3374 79.1405 66.2717C79.5198 67.206 79.7142 68.2071 79.7124 69.2177V119.929C87.9351 125.928 97.1875 131.542 107.576 136.603L123.446 115.1L96.1275 73.4783C95.3113 72.2305 94.8717 70.7678 94.8626 69.2698C94.8535 67.7718 95.2753 66.3038 96.0763 65.0459C96.8772 63.788 98.0224 62.7951 99.3712 62.1891C100.72 61.5832 102.214 61.3905 103.669 61.6348L142.48 68.2025V68.2025Z" fill="white"/>
</g>
<defs>
<filter id="filter0_d_305_8" x="0" y="0" width="220" height="208" filterUnits="userSpaceOnUse" color-interpolation-filters="sRGB">
<feFlood flood-opacity="0" result="BackgroundImageFix"/>
<feColorMatrix in="SourceAlpha" type="matrix" values="0 0 0 0 0 0 0 0 0 0 0 0 0 0 0 0 0 0 127 0" result="hardAlpha"/>
<feOffset dy="4"/>
<feGaussianBlur stdDeviation="2"/>
<feComposite in2="hardAlpha" operator="out"/>
<feColorMatrix type="matrix" values="0 0 0 0 0 0 0 0 0 0 0 0 0 0 0 0 0 0 0.25 0"/>
<feBlend mode="normal" in2="BackgroundImageFix" result="effect1_dropShadow_305_8"/>
<feBlend mode="normal" in="SourceGraphic" in2="effect1_dropShadow_305_8" result="shape"/>
</filter>
</defs>
</svg>
